<svg xmlns="http://www.w3.org/2000/svg" viewBox="0 0 64 64" width="64" height="64">
  <defs>
    <linearGradient id="bg" x1="0%" y1="0%" x2="100%" y2="100%">
      <stop offset="0%" stop-color="#0b131f" />
      <stop offset="100%" stop-color="#14202f" />
    </linearGradient>
    <linearGradient id="blue-snake" x1="0%" y1="0%" x2="100%" y2="100%">
      <stop offset="0%" stop-color="#3776ab" />
      <stop offset="100%" stop-color="#63a6ee" />
    </linearGradient>
    <linearGradient id="yellow-snake" x1="0%" y1="0%" x2="100%" y2="100%">
      <stop offset="0%" stop-color="#ffd43b" />
      <stop offset="100%" stop-color="#fbc02d" />
    </linearGradient>
    <filter id="shadow" x="-10%" y="-10%" width="120%" height="120%">
      <feDropShadow dx="0" dy="2" stdDeviation="2" flood-color="#000000" flood-opacity="0.4"/>
    </filter>
  </defs>
  <!-- Background Shield -->
  <rect x="2" y="2" width="60" height="60" rx="14" fill="url(#bg)" stroke="#27374d" stroke-width="2" />
  
  <g filter="url(#shadow)">
    <!-- Top Blue Python Snake -->
    <path fill="url(#blue-snake)" d="M31.88 8c-7.66 0-7.18 3.32-7.18 3.32l.01 3.44h7.32v1.03H21.72s-4.88-.55-4.88 7.15c0 7.7 4.26 7.42 4.26 7.42h2.54v-3.56s-.14-4.26 4.26-4.26h7.33s4.12.07 4.12-4.12V15.3s.63-7.3-7.47-7.3zM27.2 12.16a1.18 1.18 0 1 1 0-2.36 1.18 1.18 0 0 1 0 2.36z"/>
    
    <!-- Bottom Yellow Python Snake -->
    <path fill="url(#yellow-snake)" d="M32.12 56c7.66 0 7.18-3.32 7.18-3.32l-.01-3.44h-7.32v-1.03h10.31s4.88.55 4.88-7.15c0-7.7-4.26-7.42-4.26-7.42h-2.54v3.56s.14 4.26-4.26 4.26h-7.33s-4.12-.07-4.12 4.12V48.7s-.63 7.3 7.47 7.3zM36.8 51.84a1.18 1.18 0 1 1 0 2.36 1.18 1.18 0 0 1 0-2.36z"/>
  </g>
</svg>